<?xml version="1.0" encoding="utf-8"?>
<!-- Generator: Adobe Illustrator 24.1.1, SVG Export Plug-In . SVG Version: 6.00 Build 0)  -->
<svg version="1.1" id="vector" xmlns="http://www.w3.org/2000/svg" xmlns:xlink="http://www.w3.org/1999/xlink" x="0px" y="0px"
	 viewBox="0 0 263 263" style="enable-background:new 0 0 263 263;" xml:space="preserve">
<style type="text/css">
	.st0{fill-rule:evenodd;clip-rule:evenodd;fill:#F4B400;}
	.st1{fill:#DB4437;}
	.st2{fill:#F4B400;}
	.st3{fill:#4285F4;}
	.st4{fill:#0F9D58;}
	.st5{fill-rule:evenodd;clip-rule:evenodd;fill:#3CDB84;}
	.st6{fill-rule:evenodd;clip-rule:evenodd;fill:#0F9D58;}
</style>
<path id="path_1_" class="st0" d="M263,78.8v131.5h-26.1V52.7C251,52.7,263,64.2,263,78.8z"/>
<polygon class="st1" points="63.7,169.6 55.9,177.4 48.1,169.6 42.9,174.8 50.7,182.6 42.9,190.4 48.1,195.6 55.9,187.8 63.7,195.6 
	68.9,190.4 61.1,182.6 68.9,174.8 "/>
<path class="st1" d="M33.4,200.9c0,4.2,3.6,7.3,7.8,7.3h29.2c4.2,0,7.3-3.1,7.3-7.3v-44.4H33.4V200.9z M41.2,164.4h29.2v36.5H40.7
	L41.2,164.4z"/>
<polygon class="st1" points="68.9,145.6 65.2,141.9 47,141.9 43.3,145.6 30.3,145.6 30.3,152.9 82,152.9 82,145.6 "/>
<path id="path_2_1_" class="st2" d="M100.2,126.8l-8.3-18.3l-8.3,18.3l-18.3,8.3l18.3,8.3l8.3,18.8l8.3-18.3l18.3-8.3L100.2,126.8z
	 M95.5,138.8l-3.1,7.3l-3.1-7.3l-7.3-3.1l7.3-3.1l3.1-7.3l3.1,7.3l7.3,3.1L95.5,138.8z"/>
<path id="path_3_1_" class="st3" d="M127.3,109.1L121,95.5l-6.3,13.6l-13.6,6.3l13.6,6.3l6.3,13.6l6.3-13.6l13.6-6.3L127.3,109.1z
	 M124.2,117.9l-2.6,5.2l-2.6-5.2l-5.2-2.6l5.2-2.6l2.6-5.2l2.6,5.2l5.2,2.6L124.2,117.9z"/>
<path id="path_4" class="st4" d="M209.6,126.1h-4.1V93.4c0-4.6-3.4-8-8-8h-8c-4.6,0-8,3.4-8,8V126h-4.1c-11.4,0-20.7,9.1-20.7,20.7
	v28.7h73.4v-28.7C230.2,135.2,221,126.1,209.6,126.1z M189.4,93.4h8V126h-8V93.4z M222.2,166.7h-8v-12.1c0-2.3-1.8-4.1-4.1-4.1
	s-4.1,1.8-4.1,4.1v12.1h-8v-12.1c0-2.3-1.8-4.1-4.1-4.1s-4.1,1.8-4.1,4.1v12.1h-8v-12.1c0-2.3-1.8-4.1-4.1-4.1s-4.1,1.8-4.1,4.1
	v12.1h-8V146c0-6.9,5.7-12.1,12.1-12.1h32.6c6.9,0,12.1,5.7,12.1,12.1L222.2,166.7z"/>
<path id="path_7" class="st1" d="M105.4,26.6l26.1,26.1h105.4v26.1H120.5l-26-26.1L105.4,26.6z"/>
<path id="path_8" class="st5" d="M26.1,210.3L6.8,227c4.7,5.7,11.5,9.4,19.9,9.4H237v-26.1L26.1,210.3L26.1,210.3z"/>
<path id="path_5" class="st6" d="M236.9,210.3v26.1c14.6,0,26.1-11.5,26.1-26.1H236.9z"/>
<path id="path_6" class="st3" d="M26.6,210.3V52.7h67.9l10.9-26.1H26.6c-14.6,0-26.1,12-26.1,26.1v157.6c0,6.3,2.6,12.5,6.3,16.7"/>
</svg>
