<?xml version="1.0" encoding="utf-8"?>
<!-- Generator: Adobe Illustrator 24.1.1, SVG Export Plug-In . SVG Version: 6.00 Build 0)  -->
<svg version="1.1" id="vector" xmlns="http://www.w3.org/2000/svg" xmlns:xlink="http://www.w3.org/1999/xlink" x="0px" y="0px"
	 viewBox="0 0 263 263" style="enable-background:new 0 0 263 263;" xml:space="preserve">
<style type="text/css">
	.st0{fill-rule:evenodd;clip-rule:evenodd;fill:#F4B400;}
	.st1{fill:#DB4437;}
	.st2{fill:#F4B400;}
	.st3{fill:#4285F4;}
	.st4{fill:#0F9D58;}
	.st5{fill-rule:evenodd;clip-rule:evenodd;fill:#0F9D58;}
	.st6{fill-rule:evenodd;clip-rule:evenodd;fill:#3CDB84;}
</style>
<path id="path_1_" class="st0" d="M263,78.8v131.5h-26.1V52.7C251,52.7,263,64.2,263,78.8z"/>
<path id="path_1_1_" class="st1" d="M63.7,169.6l-7.8,7.8l-7.8-7.8l-5.2,5.2l7.8,7.8l-7.8,7.8l5.2,5.2l7.8-7.8l7.8,7.8l5.2-5.2
	l-7.8-7.8l7.8-7.8L63.7,169.6z M68.9,145.6l-3.7-3.7H47l-3.7,3.7h-13v7.3h51.7v-7.3H68.9z M33.9,200.9c0,4.2,3.1,7.3,7.3,7.3h29.2
	c4.2,0,7.3-3.1,7.3-7.3v-44.4H33.4v44.4H33.9z M41.2,164.4h29.2v36.5H40.7L41.2,164.4z"/>
<path id="path_2_1_" class="st2" d="M100.2,126.8l-8.3-18.3l-8.3,18.3l-18.3,8.3l18.3,8.3l8.3,18.8l8.3-18.3l18.3-8.3L100.2,126.8z
	 M95.5,138.8l-3.1,7.3l-3.1-7.3l-7.3-3.1l7.3-3.1l3.1-7.3l3.1,7.3l7.3,3.1L95.5,138.8z"/>
<path id="path_3_1_" class="st3" d="M127.3,109.1l-6.3-13.6l-6.3,13.6l-13.6,6.3l13.6,6.3l6.3,13.6l6.3-13.6l13.6-6.3L127.3,109.1z
	 M124.2,117.9l-2.6,5.2l-2.6-5.2l-5.2-2.6l5.2-2.6l2.6-5.2l2.6,5.2l5.2,2.6L124.2,117.9z"/>
<path id="path_4" class="st4" d="M212.9,119.5h-3.7V89.8c0-4.2-3.1-7.3-7.3-7.3h-7.3c-4.2,0-7.3,3.1-7.3,7.3v29.7h-3.7
	c-10.4,0-18.8,8.3-18.8,18.8v26.1h66.8v-26.1C231.7,127.8,223.3,119.5,212.9,119.5z M194.6,89.8h7.3v29.7h-7.3V89.8z M224.4,156.5
	h-7.3v-11c0-2.1-1.6-3.7-3.7-3.7c-2.1,0-3.7,1.6-3.7,3.7v11h-7.3v-11c0-2.1-1.6-3.7-3.7-3.7s-3.7,1.6-3.7,3.7v11h-7.3v-11
	c0-2.1-1.6-3.7-3.7-3.7s-3.7,1.6-3.7,3.7v11h-7.3v-18.8c0-6.3,5.2-11,11-11h29.7c6.3,0,11,5.2,11,11L224.4,156.5z"/>
<path id="path_5" class="st5" d="M236.9,210.3v26.1c14.6,0,26.1-11.5,26.1-26.1H236.9z"/>
<path id="path_6" class="st3" d="M26.1,210.3V52.7h67.8l11-26.1H26.1C11.5,26.6,0,38.6,0,52.7v157.6c0,6.3,2.6,12.5,6.3,16.7"/>
<path id="path_7" class="st1" d="M105.4,26.6l26.1,26.1h105.4v26.1H120.5L94.5,52.7L105.4,26.6z"/>
<path id="path_8" class="st6" d="M26.1,210.3L6.3,227c4.7,5.7,12,9.4,20.4,9.4h210.3v-26.1H26.1z"/>
</svg>
