<?xml version="1.0" encoding="utf-8"?>
<!-- Generator: Adobe Illustrator 28.4.0, SVG Export Plug-In . SVG Version: 6.00 Build 0)  -->
<svg version="1.1" id="vector" xmlns="http://www.w3.org/2000/svg" xmlns:xlink="http://www.w3.org/1999/xlink" x="0px" y="0px"
	 viewBox="0 0 263 263" style="enable-background:new 0 0 263 263;" xml:space="preserve">
<style type="text/css">
	.st0{fill:#D2D2D4;}
	.st1{fill:#DD3039;}
	.st2{fill:#F4B400;}
	.st3{fill:#3D9447;}
	.st4{fill:#1666D3;}
</style>
<path class="st0" d="M82.5,136.1l-68.1-118C11.5,13.3,13.2,7,18.1,4.1l1.1-0.6c4.9-2.8,11.2-1.2,14.1,3.8l68.1,118
	c1.8,3.1,0.7,7-2.3,8.8l-7.8,4.5C88.2,140.3,84.3,139.2,82.5,136.1z"/>
<path class="st1" d="M129.8,81.1c9.3,10.6,18.5,20.8,29.4,29.8c23.7,19.7,54.6,30.4,85.1,32.4c4.6,0.3,13.7-0.6,17,3
	c1.6,1.8,1.9,4.3,1.7,6.6c-1.1,11.6-29.4,47-39.5,54.5c-0.1,0.1-0.2,0.2-0.3,0.2c-27.4,26.7-64.1,44.2-101.6,51
	c-2.1,0.3-10,1.7-11.6,1.7c-14,2.1-36.7,2.5-50.9,1.1c-11.6-0.7-48.2-4.2-56.4-12.7c-2.6-2.7-3.2-5.5-1.9-9c1.3-3.6,4-6.8,6-10
	c2.3-3.7,4.5-7.4,6.6-11.2c12.1-21.8,21-49.8,21.7-74.8c0.6-0.7,0.3-3.8,0.3-4.9c3.3-1.4,7.6-4,10.8-5.8c7-4.1,13.9-8.4,20.7-12.8
	C75,115.5,83.4,110,91.7,105c3.8-2.3,7.8-5.1,11.6-7.2C112.3,92.4,121.1,86.8,129.8,81.1z"/>
<path class="st2" d="M129.8,81.1c9.3,10.6,18.5,20.8,29.4,29.8c23.7,19.7,54.6,30.4,85.1,32.4c4.6,0.3,13.7-0.6,17,3
	c1.6,1.8,1.9,4.3,1.7,6.6c-1.1,11.6-29.4,47-39.5,54.5c-0.1,0.1-0.2,0.2-0.3,0.2c-0.3,0-0.6,0-0.9,0c-4.6-0.1-12.2-2.1-16.7-3.5
	c-23.9-7.6-38.7-19.8-55.5-37.4c-0.8-0.9-1.6-2-2.4-2.9c-15.4-17.5-26.1-37.9-38.4-57.5c-1.8-2.9-3.7-5.9-5.7-8.7
	C112.3,92.4,121.1,86.8,129.8,81.1z"/>
<path class="st3" d="M149.9,166.9c16.8,17.6,31.6,29.8,55.5,37.4c4.5,1.4,12.1,3.4,16.7,3.5c0.3,0,0.6,0,0.9,0
	c-27.4,26.7-64.1,44.2-101.6,51c-2.1,0.3-10,1.7-11.6,1.7c1.7-1.2,8.1-2.9,11.2-4.5c0.6-0.6,5.8-3.4,7-4.1
	c25.4-16.7,32.8-43.4,26.1-71.6c-0.6-2.4-1.3-4.7-2.1-7C151.4,171.5,150,168.6,149.9,166.9z"/>
<path class="st4" d="M34.9,144.1c-0.7,24.9-9.6,52.9-21.6,74.5c-2.1,3.8-4.3,7.5-6.6,11.2c-2,3.2-4.7,6.4-6,10
	c-1.3,3.5-0.7,6.3,1.9,9c8.2,8.5,44.8,12,56.4,12.7c9.4-11.7,16.5-25,20.9-39.3c6-19,6-44.4,1.7-63.8c-2.7-12.1-9.2-27.1-14.9-38
	C75,115.5,83.4,110,91.7,105c3.8-2.3,7.8-5.1,11.6-7.2c8.9-5.4,17.7-11,26.4-16.7c-5.4-5.6-11.9-14.5-19.5-16.7
	c-8.9-2.6-16,2.3-23.3,6.7c-4.6,2.8-9.5,5.9-14.2,8.5L53,91.5c-9.6,5.8-22.2,10.9-25.2,22.8c-3.1,12.1,7.2,18.5,7.1,29.5"/>
<path id="path_2_00000086679071232152184460000000533669328472153223_" class="st2" d="M201.9,71.9l-12.1-26.7l-12.1,26.7L150.9,84
	l26.7,12.1l12.1,27.4l12.1-26.7l26.7-12.1L201.9,71.9z M195,89.4l-4.5,10.7L186,89.4l-10.7-4.5l10.7-4.5l4.5-10.7l4.5,10.7l10.7,4.5
	L195,89.4z"/>
<path id="path_3_00000010993796201006959250000010478887494751586457_" class="st4" d="M226.7,25.4l-9.2-19.9l-9.2,19.9l-19.9,9.2
	l19.9,9.2l9.2,19.9l9.2-19.9l19.9-9.2L226.7,25.4z M222.1,38.3l-3.8,7.6l-3.8-7.6l-7.6-3.8l7.6-3.8l3.8-7.6l3.8,7.6l7.6,3.8
	L222.1,38.3z"/>
<path class="st0" d="M72.7,79.6"/>
</svg>
